<svg width="38" height="38" viewBox="0 0 38 38" fill="none" xmlns="http://www.w3.org/2000/svg">
<path d="M11.0342 11.0343C11.1445 10.9237 11.2755 10.8359 11.4198 10.7761C11.5641 10.7162 11.7187 10.6854 11.8749 10.6854C12.0311 10.6854 12.1858 10.7162 12.3301 10.7761C12.4743 10.8359 12.6054 10.9237 12.7157 11.0343L18.9999 17.3209L25.2842 11.0343C25.3946 10.9238 25.5257 10.8363 25.6699 10.7765C25.8142 10.7168 25.9688 10.686 26.1249 10.686C26.2811 10.686 26.4357 10.7168 26.5799 10.7765C26.7242 10.8363 26.8553 10.9238 26.9657 11.0343C27.0761 11.1447 27.1637 11.2757 27.2234 11.42C27.2832 11.5642 27.3139 11.7189 27.3139 11.875C27.3139 12.0311 27.2832 12.1858 27.2234 12.33C27.1637 12.4743 27.0761 12.6053 26.9657 12.7158L20.679 19L26.9657 25.2842C27.0761 25.3947 27.1637 25.5257 27.2234 25.67C27.2832 25.8142 27.3139 25.9689 27.3139 26.125C27.3139 26.2811 27.2832 26.4358 27.2234 26.58C27.1637 26.7243 27.0761 26.8553 26.9657 26.9657C26.8553 27.0762 26.7242 27.1637 26.5799 27.2235C26.4357 27.2832 26.2811 27.314 26.1249 27.314C25.9688 27.314 25.8142 27.2832 25.6699 27.2235C25.5257 27.1637 25.3946 27.0762 25.2842 26.9657L18.9999 20.6791L12.7157 26.9657C12.6053 27.0762 12.4742 27.1637 12.3299 27.2235C12.1857 27.2832 12.0311 27.314 11.8749 27.314C11.7188 27.314 11.5642 27.2832 11.4199 27.2235C11.2757 27.1637 11.1446 27.0762 11.0342 26.9657C10.9238 26.8553 10.8362 26.7243 10.7764 26.58C10.7167 26.4358 10.6859 26.2811 10.6859 26.125C10.6859 25.9689 10.7167 25.8142 10.7764 25.67C10.8362 25.5257 10.9238 25.3947 11.0342 25.2842L17.3208 19L11.0342 12.7158C10.9236 12.6054 10.8358 12.4744 10.776 12.3301C10.7161 12.1859 10.6853 12.0312 10.6853 11.875C10.6853 11.7188 10.7161 11.5641 10.776 11.4199C10.8358 11.2756 10.9236 11.1446 11.0342 11.0343Z" fill="black"/>
</svg>
