<svg width="158" height="39" viewBox="0 0 158 39" fill="none" xmlns="http://www.w3.org/2000/svg">
<path d="M10.3664 16.0528C21.7255 8.70297 39.0983 6.0301 35.7574 16.0528C32.4165 26.0756 44.776 19.8786 42.4392 22.7347C42.2055 23.0203 41.771 23.4028 41.771 23.4028L35.7574 29.4165H10.3664C10.3664 29.4165 3.01638 30.7527 3.6846 22.7347C4.35282 14.7166 -0.992678 23.4027 10.3664 16.0528ZM27.071 20.0621H21.0573C21.0573 20.0621 21.7253 23.4028 24.3981 23.4028C27.071 23.4028 27.071 20.0621 27.071 20.0621Z" stroke="#716848" stroke-width="2"/>
<path d="M54.9659 25V16.2727H57.3864V25H54.9659ZM56.1818 15.1477C55.822 15.1477 55.5133 15.0284 55.2557 14.7898C55.0019 14.5473 54.875 14.2576 54.875 13.9205C54.875 13.5871 55.0019 13.3011 55.2557 13.0625C55.5133 12.8201 55.822 12.6989 56.1818 12.6989C56.5417 12.6989 56.8485 12.8201 57.1023 13.0625C57.3598 13.3011 57.4886 13.5871 57.4886 13.9205C57.4886 14.2576 57.3598 14.5473 57.1023 14.7898C56.8485 15.0284 56.5417 15.1477 56.1818 15.1477ZM61.5185 22.4886L61.5241 19.5852H61.8764L64.6719 16.2727H67.4503L63.6946 20.6591H63.1207L61.5185 22.4886ZM59.3253 25V13.3636H61.7457V25H59.3253ZM64.7798 25L62.2116 21.1989L63.8253 19.4886L67.6151 25H64.7798ZM72.2557 25.1705C71.358 25.1705 70.5852 24.9886 69.9375 24.625C69.2936 24.2576 68.7973 23.7386 68.4489 23.0682C68.1004 22.3939 67.9261 21.5966 67.9261 20.6761C67.9261 19.7784 68.1004 18.9905 68.4489 18.3125C68.7973 17.6345 69.2879 17.1061 69.9205 16.7273C70.5568 16.3485 71.303 16.1591 72.1591 16.1591C72.7348 16.1591 73.2708 16.2519 73.767 16.4375C74.267 16.6193 74.7027 16.8939 75.0739 17.2614C75.4489 17.6288 75.7405 18.0909 75.9489 18.6477C76.1572 19.2008 76.2614 19.8485 76.2614 20.5909V21.2557H68.892V19.7557H73.983C73.983 19.4072 73.9072 19.0985 73.7557 18.8295C73.6042 18.5606 73.3939 18.3504 73.125 18.1989C72.8598 18.0436 72.5511 17.9659 72.1989 17.9659C71.8314 17.9659 71.5057 18.0511 71.2216 18.2216C70.9413 18.3883 70.7216 18.6136 70.5625 18.8977C70.4034 19.178 70.322 19.4905 70.3182 19.8352V21.2614C70.3182 21.6932 70.3977 22.0663 70.5568 22.3807C70.7197 22.6951 70.9489 22.9375 71.2443 23.108C71.5398 23.2784 71.8902 23.3636 72.2955 23.3636C72.5644 23.3636 72.8106 23.3258 73.0341 23.25C73.2576 23.1742 73.4489 23.0606 73.608 22.9091C73.767 22.7576 73.8883 22.572 73.9716 22.3523L76.2102 22.5C76.0966 23.0379 75.8636 23.5076 75.5114 23.9091C75.1629 24.3068 74.7121 24.6174 74.1591 24.8409C73.6098 25.0606 72.9754 25.1705 72.2557 25.1705ZM77.8409 25V16.2727H80.1477V17.8125H80.25C80.4318 17.3011 80.7348 16.8977 81.1591 16.6023C81.5833 16.3068 82.0909 16.1591 82.6818 16.1591C83.2803 16.1591 83.7898 16.3087 84.2102 16.608C84.6307 16.9034 84.911 17.3049 85.0511 17.8125H85.142C85.3201 17.3125 85.642 16.9129 86.108 16.6136C86.5777 16.3106 87.1326 16.1591 87.7727 16.1591C88.5871 16.1591 89.2481 16.4186 89.7557 16.9375C90.267 17.4527 90.5227 18.1837 90.5227 19.1307V25H88.108V19.608C88.108 19.1231 87.9792 18.7595 87.7216 18.517C87.464 18.2746 87.142 18.1534 86.7557 18.1534C86.3163 18.1534 85.9735 18.2936 85.7273 18.5739C85.4811 18.8504 85.358 19.2159 85.358 19.6705V25H83.0114V19.5568C83.0114 19.1288 82.8883 18.7879 82.642 18.5341C82.3996 18.2803 82.0795 18.1534 81.6818 18.1534C81.4129 18.1534 81.1705 18.2216 80.9545 18.358C80.7424 18.4905 80.5739 18.678 80.4489 18.9205C80.3239 19.1591 80.2614 19.4394 80.2614 19.7614V25H77.8409ZM92.4801 25V13.3636H94.9006V17.7386H94.9744C95.0805 17.5038 95.2339 17.2652 95.4347 17.0227C95.6392 16.7765 95.9044 16.572 96.2301 16.4091C96.5597 16.2424 96.9688 16.1591 97.4574 16.1591C98.0938 16.1591 98.6809 16.3258 99.2188 16.6591C99.7566 16.9886 100.187 17.4867 100.509 18.1534C100.83 18.8163 100.991 19.6477 100.991 20.6477C100.991 21.6212 100.834 22.4432 100.52 23.1136C100.209 23.7803 99.785 24.286 99.2472 24.6307C98.7131 24.9716 98.1146 25.142 97.4517 25.142C96.982 25.142 96.5824 25.0644 96.2528 24.9091C95.9271 24.7538 95.66 24.5587 95.4517 24.3239C95.2434 24.0852 95.0843 23.8447 94.9744 23.6023H94.8665V25H92.4801ZM94.8494 20.6364C94.8494 21.1553 94.9214 21.608 95.0653 21.9943C95.2093 22.3807 95.4176 22.6818 95.6903 22.8977C95.9631 23.1098 96.2945 23.2159 96.6847 23.2159C97.0786 23.2159 97.4119 23.108 97.6847 22.892C97.9574 22.6723 98.1638 22.3693 98.304 21.983C98.4479 21.5928 98.5199 21.1439 98.5199 20.6364C98.5199 20.1326 98.4498 19.6894 98.3097 19.3068C98.1695 18.9242 97.9631 18.625 97.6903 18.4091C97.4176 18.1932 97.0824 18.0852 96.6847 18.0852C96.2907 18.0852 95.9574 18.1894 95.6847 18.3977C95.4157 18.6061 95.2093 18.9015 95.0653 19.2841C94.9214 19.6667 94.8494 20.1174 94.8494 20.6364ZM105.095 25.1648C104.538 25.1648 104.042 25.0682 103.607 24.875C103.171 24.678 102.826 24.3883 102.572 24.0057C102.322 23.6193 102.197 23.1383 102.197 22.5625C102.197 22.0777 102.286 21.6705 102.464 21.3409C102.643 21.0114 102.885 20.7462 103.192 20.5455C103.499 20.3447 103.847 20.1932 104.237 20.0909C104.631 19.9886 105.044 19.9167 105.476 19.875C105.983 19.822 106.393 19.7727 106.703 19.7273C107.014 19.678 107.239 19.6061 107.379 19.5114C107.519 19.4167 107.589 19.2765 107.589 19.0909V19.0568C107.589 18.697 107.476 18.4186 107.249 18.2216C107.025 18.0246 106.707 17.9261 106.294 17.9261C105.858 17.9261 105.512 18.0227 105.254 18.2159C104.997 18.4053 104.826 18.6439 104.743 18.9318L102.504 18.75C102.618 18.2197 102.841 17.7614 103.175 17.375C103.508 16.9848 103.938 16.6856 104.464 16.4773C104.995 16.2652 105.608 16.1591 106.305 16.1591C106.79 16.1591 107.254 16.2159 107.697 16.3295C108.144 16.4432 108.54 16.6193 108.885 16.858C109.233 17.0966 109.508 17.4034 109.709 17.7784C109.91 18.1496 110.01 18.5947 110.01 19.1136V25H107.714V23.7898H107.646C107.506 24.0625 107.319 24.303 107.084 24.5114C106.849 24.7159 106.567 24.8769 106.237 24.9943C105.908 25.108 105.527 25.1648 105.095 25.1648ZM105.788 23.4943C106.144 23.4943 106.459 23.4242 106.732 23.2841C107.004 23.1402 107.218 22.947 107.374 22.7045C107.529 22.4621 107.607 22.1875 107.607 21.8807V20.9545C107.531 21.0038 107.427 21.0492 107.294 21.0909C107.165 21.1288 107.019 21.1648 106.857 21.1989C106.694 21.2292 106.531 21.2576 106.368 21.2841C106.205 21.3068 106.057 21.3277 105.925 21.3466C105.641 21.3883 105.393 21.4545 105.18 21.5455C104.968 21.6364 104.804 21.7595 104.686 21.9148C104.569 22.0663 104.51 22.2557 104.51 22.483C104.51 22.8125 104.629 23.0644 104.868 23.2386C105.11 23.4091 105.417 23.4943 105.788 23.4943ZM114.081 22.4886L114.087 19.5852H114.439L117.234 16.2727H120.013L116.257 20.6591H115.683L114.081 22.4886ZM111.888 25V13.3636H114.308V25H111.888ZM117.342 25L114.774 21.1989L116.388 19.4886L120.178 25H117.342ZM122.922 25L120.547 16.2727H122.996L124.348 22.1364H124.428L125.837 16.2727H128.24L129.672 22.1023H129.746L131.075 16.2727H133.518L131.149 25H128.587L127.087 19.5114H126.979L125.479 25H122.922ZM138.568 25.1705C137.67 25.1705 136.898 24.9886 136.25 24.625C135.606 24.2576 135.11 23.7386 134.761 23.0682C134.413 22.3939 134.239 21.5966 134.239 20.6761C134.239 19.7784 134.413 18.9905 134.761 18.3125C135.11 17.6345 135.6 17.1061 136.233 16.7273C136.869 16.3485 137.616 16.1591 138.472 16.1591C139.047 16.1591 139.583 16.2519 140.08 16.4375C140.58 16.6193 141.015 16.8939 141.386 17.2614C141.761 17.6288 142.053 18.0909 142.261 18.6477C142.47 19.2008 142.574 19.8485 142.574 20.5909V21.2557H135.205V19.7557H140.295C140.295 19.4072 140.22 19.0985 140.068 18.8295C139.917 18.5606 139.706 18.3504 139.438 18.1989C139.172 18.0436 138.864 17.9659 138.511 17.9659C138.144 17.9659 137.818 18.0511 137.534 18.2216C137.254 18.3883 137.034 18.6136 136.875 18.8977C136.716 19.178 136.634 19.4905 136.631 19.8352V21.2614C136.631 21.6932 136.71 22.0663 136.869 22.3807C137.032 22.6951 137.261 22.9375 137.557 23.108C137.852 23.2784 138.203 23.3636 138.608 23.3636C138.877 23.3636 139.123 23.3258 139.347 23.25C139.57 23.1742 139.761 23.0606 139.92 22.9091C140.08 22.7576 140.201 22.572 140.284 22.3523L142.523 22.5C142.409 23.0379 142.176 23.5076 141.824 23.9091C141.475 24.3068 141.025 24.6174 140.472 24.8409C139.922 25.0606 139.288 25.1705 138.568 25.1705ZM144.153 25V16.2727H146.46V17.8125H146.562C146.744 17.3011 147.047 16.8977 147.472 16.6023C147.896 16.3068 148.403 16.1591 148.994 16.1591C149.593 16.1591 150.102 16.3087 150.523 16.608C150.943 16.9034 151.223 17.3049 151.364 17.8125H151.455C151.633 17.3125 151.955 16.9129 152.42 16.6136C152.89 16.3106 153.445 16.1591 154.085 16.1591C154.9 16.1591 155.561 16.4186 156.068 16.9375C156.58 17.4527 156.835 18.1837 156.835 19.1307V25H154.42V19.608C154.42 19.1231 154.292 18.7595 154.034 18.517C153.777 18.2746 153.455 18.1534 153.068 18.1534C152.629 18.1534 152.286 18.2936 152.04 18.5739C151.794 18.8504 151.67 19.2159 151.67 19.6705V25H149.324V19.5568C149.324 19.1288 149.201 18.7879 148.955 18.5341C148.712 18.2803 148.392 18.1534 147.994 18.1534C147.725 18.1534 147.483 18.2216 147.267 18.358C147.055 18.4905 146.886 18.678 146.761 18.9205C146.636 19.1591 146.574 19.4394 146.574 19.7614V25H144.153Z" fill="black"/>
</svg>
